<svg xmlns="http://www.w3.org/2000/svg" width="500" height="500" viewBox="0 0 500 500"><path fill="#fff" d="M250 15c-129.793 0-235 105.207-235 235 0 129.781 105.207 235 235 235 129.781 0 235-105.219 235-235 0-129.793-105.219-235-235-235zm81.88 82.74c29.323 17.153 52.545 40.385 69.704 69.701-9.934 7.677-21.097 11.166-33.5 10.491-12.41-.68-23.118-5.52-32.137-14.548-9.038-9.021-13.872-19.732-14.56-32.146-.669-12.404 2.82-23.567 10.493-33.498zm26.392 151.919c0 4.295-1.468 7.905-4.398 10.834-2.943 2.931-6.543 4.393-10.831 4.393s-8.005-1.462-11.163-4.393c-3.163-2.93-4.736-6.539-4.736-10.834 0-4.282 1.573-8.002 4.736-11.163 3.158-3.151 6.875-4.736 11.163-4.736s7.888 1.585 10.831 4.736c2.931 3.161 4.398 6.881 4.398 11.163zm-53.798-76.806c2.931-3.148 6.537-4.733 10.825-4.733 4.281 0 8.005 1.585 11.169 4.733 3.151 3.165 4.737 6.888 4.737 11.167 0 4.294-1.586 7.9-4.737 10.831-3.164 2.937-6.888 4.398-11.169 4.398-4.288 0-7.895-1.462-10.825-4.398-2.936-2.931-4.405-6.537-4.405-10.831-.001-4.279 1.469-8.002 4.405-11.167zm-137.034-75.113c7.671 9.931 11.167 21.211 10.491 33.835-.676 12.638-5.413 23.349-14.21 32.146-8.798 8.797-19.519 13.53-32.146 14.21-12.63.675-23.913-2.814-33.835-10.491 17.598-28.863 40.826-52.102 69.7-69.7zm.68 140.756c3.15 3.161 4.733 6.881 4.733 11.163 0 4.295-1.583 7.905-4.733 10.834-3.161 2.931-6.884 4.393-11.167 4.393-4.294 0-7.901-1.462-10.828-4.393-2.937-2.93-4.399-6.539-4.399-10.834 0-4.282 1.462-8.002 4.399-11.163 2.927-3.151 6.534-4.736 10.828-4.736 4.283 0 8.006 1.585 11.167 4.736zm-90.002 11.163c0-16.916 2.251-33.26 6.767-49.055 12.18 1.352 22.436 6.764 30.788 16.24 8.346 9.47 12.521 20.415 12.521 32.815 0 12.414-4.175 23.348-12.521 32.822-8.353 9.473-18.608 14.886-30.788 16.237-4.516-15.782-6.767-32.144-6.767-49.059zm89.322 151.925c-29.329-17.595-52.557-40.829-69.701-69.704 9.922-7.667 21.084-11.162 33.498-10.492 12.404.688 23.114 5.418 32.146 14.216 9.019 8.791 13.872 19.512 14.548 32.148.676 12.632-2.82 23.911-10.491 33.832zm27.411-75.116c-2.941 3.158-6.546 4.737-10.831 4.737-4.289 0-8.012-1.579-11.167-4.737-3.161-3.151-4.733-6.874-4.733-11.169 0-4.281 1.572-8.005 4.733-11.169 3.155-2.703 6.877-4.062 11.167-4.062 4.285 0 7.89 1.476 10.831 4.406 2.923 2.942 4.398 6.543 4.398 10.824 0 4.296-1.475 8.018-4.398 11.17zm.337-131.617c-3.161 2.937-6.884 4.398-11.169 4.398-4.289 0-7.898-1.462-10.825-4.398-2.937-2.931-4.399-6.537-4.399-10.831 0-4.279 1.462-8.002 4.399-11.167 2.927-3.148 6.536-4.733 10.825-4.733 4.285 0 8.008 1.585 11.169 4.733 3.15 3.165 4.736 6.888 4.736 11.167.001 4.293-1.585 7.9-4.736 10.831zm54.471 227.031c-16.916 0-33.27-2.033-49.055-6.094 1.352-12.632 6.764-23.112 16.24-31.467 9.47-8.337 20.405-12.508 32.815-12.508 12.407 0 23.348 4.171 32.822 12.508 9.473 8.354 14.886 18.835 16.237 31.467-15.789 4.061-32.144 6.094-49.059 6.094zm-10.825-89.663c2.931-2.931 6.536-4.399 10.824-4.399 4.286 0 8.008 1.469 11.166 4.399 3.151 2.943 4.743 6.542 4.743 10.824 0 4.295-1.592 8.012-4.743 11.162-3.157 3.164-6.88 4.743-11.166 4.743-4.288 0-7.894-1.579-10.824-4.743-2.941-3.15-4.402-6.867-4.402-11.162.001-4.282 1.462-7.881 4.402-10.824zm-4.401-175.265c0-4.281 1.461-8.004 4.402-11.166 2.931-3.151 6.536-4.74 10.824-4.74 4.286 0 8.008 1.588 11.166 4.74 3.151 3.161 4.743 6.884 4.743 11.166 0 4.295-1.592 7.895-4.743 10.828-3.157 2.938-6.88 4.396-11.166 4.396-4.288 0-7.894-1.459-10.824-4.396-2.941-2.933-4.402-6.533-4.402-10.828zm48.047-41.281c-9.474 8.355-20.415 12.521-32.822 12.521-12.41 0-23.345-4.165-32.815-12.521-9.476-8.339-14.889-18.826-16.24-31.467 15.785-4.058 32.14-6.088 49.055-6.088s33.27 2.03 49.059 6.088c-1.351 12.641-6.764 23.127-16.237 31.467zm21.994 210.795c-2.936-3.151-4.405-6.874-4.405-11.169 0-4.281 1.47-7.882 4.405-10.824 2.931-2.931 6.537-4.406 10.825-4.406 4.281 0 8.005 1.476 11.169 4.406 3.151 2.942 4.737 6.543 4.737 10.824 0 4.295-1.586 8.018-4.737 11.169-3.164 3.158-6.888 4.737-11.169 4.737-4.288 0-7.895-1.579-10.825-4.737zm27.406 75.116c-7.673-9.921-11.162-21.084-10.492-33.5.688-12.397 5.521-23.111 14.56-32.143 9.019-9.025 19.844-13.866 32.475-14.554 12.631-.67 23.683 2.825 33.162 10.492-17.16 29.337-40.382 52.559-69.705 69.705zm83.238-102.866c-12.183-1.352-22.455-6.765-30.797-16.237-8.344-9.474-12.508-20.408-12.508-32.822 0-12.4 4.164-23.345 12.508-32.815 8.342-9.476 18.614-14.889 30.797-16.24 4.497 15.795 6.764 32.14 6.764 49.055s-2.267 33.277-6.764 49.059z"/></svg>