<?xml version="1.0" encoding="utf-8"?>
<!-- Generator: Adobe Illustrator 17.0.0, SVG Export Plug-In . SVG Version: 6.00 Build 0)  -->
<!DOCTYPE svg PUBLIC "-//W3C//DTD SVG 1.1//EN" "http://www.w3.org/Graphics/SVG/1.1/DTD/svg11.dtd">
<svg version="1.1" id="Layer_1" xmlns="http://www.w3.org/2000/svg" xmlns:xlink="http://www.w3.org/1999/xlink" x="0px" y="0px"
	 width="256px" height="256px" viewBox="0 0 256 256" style="enable-background:new 0 0 256 256;" xml:space="preserve">
<style type="text/css">
	.st0{fill:#D52300;}
	.st1{fill:#FFFFFF;}
</style>
<path class="st0" d="M255,234.27c0,11.45-9.28,20.73-20.73,20.73H21.73C10.28,255,1,245.72,1,234.27V21.73C1,10.28,10.28,1,21.73,1
	h212.53C245.72,1,255,10.28,255,21.73V234.27z"/>
<path class="st1" d="M223,219.27c0,5.93-4.8,10.73-10.73,10.73H42.73C36.8,230,32,225.2,32,219.27V93.73C32,87.8,36.8,83,42.73,83
	h169.54C218.2,83,223,87.8,223,93.73V219.27z"/>
<g>
</g>
<g>
</g>
<g>
</g>
<g>
</g>
<g>
</g>
<g>
</g>
<g>
</g>
<g>
</g>
<g>
</g>
<g>
</g>
<g>
</g>
<g>
</g>
<g>
</g>
<g>
</g>
<g>
</g>
</svg>
