<?xml version="1.0" encoding="utf-8"?>
<!-- Generator: Adobe Illustrator 17.0.0, SVG Export Plug-In . SVG Version: 6.00 Build 0)  -->
<!DOCTYPE svg PUBLIC "-//W3C//DTD SVG 1.1//EN" "http://www.w3.org/Graphics/SVG/1.1/DTD/svg11.dtd">
<svg version="1.1" id="Layer_1" xmlns="http://www.w3.org/2000/svg" xmlns:xlink="http://www.w3.org/1999/xlink" x="0px" y="0px"
	 width="256px" height="256px" viewBox="0 0 256 256" style="enable-background:new 0 0 256 256;" xml:space="preserve">
<style type="text/css">
	.st0{fill:#FF5601;}
</style>
<circle cx="128.38" cy="83" r="39.67"/>
<path class="st0" d="M168.3,163.97c-32.67,46.82-37.39,86.38-37.39,86.38c-0.72,3.27-3.63,3.27-4.36,0c0,0-6.17-39.56-38.11-86.38
	c-26.49-37.02-38.47-51.54-38.47-81.66c0-43.19,34.48-77.67,78.03-77.67c43.19,0,78.76,34.48,78.76,77.67
	C206.77,112.43,183.54,141.83,168.3,163.97z M158.86,83.76c0-16.7-13.07-29.76-30.12-29.76c-15.97,0-29.4,13.07-29.4,29.76
	s13.43,30.85,29.4,30.85C145.8,114.61,158.86,100.45,158.86,83.76z"/>
<g>
</g>
<g>
</g>
<g>
</g>
<g>
</g>
<g>
</g>
<g>
</g>
<g>
</g>
<g>
</g>
<g>
</g>
<g>
</g>
<g>
</g>
<g>
</g>
<g>
</g>
<g>
</g>
<g>
</g>
</svg>
