<svg xmlns="http://www.w3.org/2000/svg" width="92" height="80" viewBox="0 0 92 80"><g fill="#fff"><rect x="13" y="12" width="20" height="3"/><rect x="13" y="19" width="20" height="3"/><rect x="13" y="26" width="20" height="3"/></g><g fill="#fff"><rect x="13" y="52" width="20" height="3"/><rect x="13" y="59" width="20" height="3"/><rect x="13" y="66" width="20" height="3"/></g><rect x="58.992" y="18.493" transform="matrix(-.707 -.707 .707 -.707 103.634 82.914)" fill="#fff" width="19.996" height="2.999"/><rect x="58.995" y="18.511" transform="matrix(-.707 .707 -.707 -.707 131.928 -14.624)" fill="#fff" width="19.996" height="2.999"/><rect x="58.994" y="58.487" transform="matrix(-.707 -.707 .707 -.707 75.361 151.189)" fill="#fff" width="19.996" height="3"/><rect x="58.99" y="58.504" transform="matrix(-.707 .707 -.707 -.707 160.199 53.651)" fill="#fff" width="19.996" height="2.999"/></svg>