<svg xmlns="http://www.w3.org/2000/svg" width="500" height="500" viewBox="0 0 500 500"><path fill="#fff" d="M250 15c-129.793 0-235 105.207-235 235 0 129.781 105.207 235 235 235 129.781 0 235-105.219 235-235 0-129.793-105.219-235-235-235zm140.576 162.906c.135 3.109.209 6.24.209 9.383 0 95.851-72.957 206.362-206.367 206.362-40.956 0-79.082-12-111.181-32.588 5.674.674 11.444 1.007 17.3 1.007 33.984 0 65.258-11.579 90.084-31.041-31.744-.592-58.528-21.558-67.756-50.362 4.427.836 8.969 1.303 13.644 1.303 6.618 0 13.021-.896 19.11-2.547-33.18-6.67-58.184-35.979-58.184-71.124l.008-.914c9.775 5.438 20.965 8.694 32.851 9.072-19.463-13.003-32.263-35.205-32.263-60.367 0-13.292 3.572-25.755 9.816-36.464 35.771 43.882 89.221 72.757 149.5 75.784-1.236-5.312-1.881-10.849-1.881-16.534 0-40.05 32.48-72.527 72.531-72.527 20.854 0 39.709 8.81 52.945 22.909 16.518-3.254 32.041-9.291 46.062-17.604-5.42 16.938-16.924 31.151-31.9 40.128 14.674-1.751 28.658-5.652 41.656-11.423-9.717 14.546-22.014 27.324-36.184 37.547z"/></svg>