<svg xmlns="http://www.w3.org/2000/svg" width="500" height="500" viewBox="0 0 500 500"><g fill="#fff"><path d="M242.834 188.712c2.401 0 3.974-.718 5.389-2.186 1.41-1.455 1.777-3.462 1.777-6.027v-51.924c0-2.082-.383-3.769-1.83-5.047-1.438-1.279-3.158-1.922-5.504-1.922-2.165 0-3.603.644-4.958 1.922-1.35 1.278-1.708 2.965-1.708 5.047v51.925c0 2.625.396 4.647 1.656 6.073 1.259 1.435 2.835 2.139 5.178 2.139zm7.165-173.712c-129.791 0-234.999 105.207-234.999 235 0 129.781 105.208 235 234.999 235 129.781 0 235.001-105.219 235.001-235 0-129.793-105.22-235-235.001-235zm34.001 92h17v73.574c0 2.265.625 3.898 1.365 4.902.744 1.021 2.078 1.522 3.741 1.522 1.304 0 3.191-.668 5.179-2.008 1.994-1.343 3.715-3.051 5.715-5.134v-72.856h17v96h-17v-10.697c-4 3.875-6.836 6.833-10.367 8.867-3.535 2.021-7.055 3.036-10.375 3.036-4.096 0-7.127-1.418-9.202-4.258-2.084-2.84-3.056-7.099-3.056-12.771v-80.177zm-59.694 4.653c4.773-4.38 11.256-6.566 19.312-6.566 7.335 0 13.513 2.312 18.196 6.923 4.684 4.613 7.187 10.554 7.187 17.816v49.244c0 8.16-2.43 14.562-7.014 19.198-4.594 4.648-10.985 6.97-19.034 6.97-7.756 0-14.141-2.397-18.794-7.188-4.653-4.793-7.158-11.239-7.158-19.341v-49.418c-.001-7.384 2.529-13.261 7.305-17.638zm-52.944-37.653l12.951 51h1.25l12.354-51h20.277l-24.194 75.204v53.796h-19v-51.381l-23.743-77.619h20.105zm225.068 300.428c0 23.394-19.202 42.372-42.862 42.372-33.768 1.406-68.32 2.035-103.567 1.964-35.245.071-69.792-.558-103.559-1.964-23.669 0-42.863-18.979-42.863-42.372-1.423-18.533-2.041-37.054-1.988-55.58-.053-18.527.565-37.055 1.98-55.581 0-23.385 19.202-42.366 42.864-42.366 33.774-1.407 68.321-2.036 103.566-1.972 35.247-.064 69.8.564 103.567 1.972 23.66 0 42.862 18.981 42.862 42.366 1.415 18.526 2.032 37.054 1.979 55.581.053 18.526-.564 37.047-1.979 55.58z"/><polygon points="188,252 125,252 125,271 145,271 145,383 167,383 167,271 188,271"/><path d="M290.522 285.108c-2.792 0-5.808.759-8.54 2.302-2.727 1.543-5.982 3.787-7.982 6.745v-42.155h-17v131h17v-7.265c2 2.957 5.184 5.139 7.943 6.554 2.758 1.414 6.023 2.113 9.542 2.113 5.336 0 9.939-1.814 12.76-5.472 2.813-3.659 4.755-8.933 4.755-15.812v-53.737c0-7.91-1.967-13.933-4.968-18.078-3-4.121-7.814-6.195-13.51-6.195zm-1.522 75.374c0 3.094-.252 5.314-1.287 6.673-1.037 1.364-2.522 2.043-4.722 2.043-1.528 0-3.164-.343-4.544-1.043-1.374-.692-3.447-1.828-4.447-3.4v-60.369c1-1.321 2.713-2.308 3.971-2.943 1.246-.636 2.646-.958 3.925-.958 2.448 0 4.102.857 5.389 2.545 1.277 1.693 1.716 4.172 1.716 7.452v50zm-68-.635c-2 2.121-3.673 3.856-5.699 5.215-2.015 1.357-3.752 2.044-5.076 2.044-1.69 0-2.629-.515-3.382-1.545-.754-1.027-.843-2.692-.843-4.985v-74.576h-19v81.292c0 5.757 1.239 10.088 3.348 12.967 2.107 2.88 5.337 4.329 9.499 4.329 3.384 0 7.03-1.035 10.624-3.092 3.587-2.059 6.53-5.067 10.53-8.996v10.5h17v-97h-17v73.847zm128.017-75.974c-8.064 0-14.968 2.65-20.056 7.952-5.086 5.28-7.961 12.133-7.961 20.541v43.479c0 9.325 2.646 16.655 7.275 21.971 4.637 5.323 11.146 7.987 19.208 7.987 8.965 0 15.967-2.507 20.481-7.537 4.517-5.022 7.035-12.503 7.035-22.421v-6.845h-19v6.303c0 5.693-.54 9.38-1.731 11.037-1.187 1.68-3.245 2.509-6.229 2.509-2.873 0-4.985-.979-6.171-2.951-1.189-1.971-1.869-5.508-1.869-10.595v-18.303h35v-24.634c0-9.188-2.396-16.232-6.812-21.135-4.425-4.907-10.934-7.358-19.17-7.358zm6.983 38.127h-16v-9.819c0-4.051.713-6.958 1.971-8.709 1.25-1.751 3.355-2.637 6.22-2.637 2.741 0 4.714.886 5.964 2.637 1.247 1.751 1.846 4.658 1.846 8.709v9.819z"/></g></svg>