<svg xmlns="http://www.w3.org/2000/svg" width="138" height="40" viewBox="0 0 138 40"><style type="text/css">.st0{fill:#FFFFFF;}</style><path class="st0" d="M38.76 19.89v.09c0 5.33 3.97 9.76 9.62 9.76v6.89c-5.24 0-9.72-2.16-12.75-5.6l2.16 5.05h-7.79l-2.54-6.58h-13.36l-2.54 6.58h-7.6l2.83-6.61c7.4-3.29 15.69-6.07 24.67-8.22-.02-.32-.03-.64-.03-.97v-.08c0-9.03 7.11-16.43 16.96-16.43v6.44c-5.67 0-9.63 4.35-9.63 9.68zm-8.4-1.17c-2.1.28-4.36.61-6.7.99l-2.88-7.45-3.3 8.51c-2.55.47-5.12.99-7.65 1.55l7.8-18.23h6.47l6.26 14.63z"/><rect x="55.92" y="4.14" class="st0" width="1.08" height="31.86"/><path class="st0" d="M64.6 11.18v-.04c0-3.69 2.88-6.72 6.81-6.72 2.34 0 3.75.63 5.1 1.78l-1.8 2.17c-1-.83-1.89-1.32-3.4-1.32-2.08 0-3.73 1.84-3.73 4.04v.04c0 2.38 1.63 4.12 3.93 4.12 1.04 0 1.97-.26 2.69-.78v-1.86h-2.88v-2.47h5.64v5.64c-1.34 1.13-3.17 2.06-5.55 2.06-4.03.02-6.81-2.82-6.81-6.66z"/><path class="st0" d="M79.06 7.7h2.82v2c.58-1.37 1.5-2.26 3.17-2.19v2.95h-.15c-1.87 0-3.02 1.13-3.02 3.51v3.67h-2.82v-9.94z"/><path class="st0" d="M85.39 14.78v-.04c0-2.17 1.65-3.17 4.01-3.17 1 0 1.73.17 2.43.41v-.17c0-1.17-.72-1.82-2.13-1.82-1.08 0-1.84.2-2.75.54l-.71-2.15c1.09-.48 2.17-.8 3.86-.8 1.54 0 2.65.41 3.36 1.11.74.74 1.08 1.84 1.08 3.17v5.77h-2.73v-1.08c-.69.76-1.63 1.26-3.01 1.26-1.87.02-3.41-1.06-3.41-3.03zm6.47-.65v-.5c-.48-.22-1.11-.37-1.8-.37-1.21 0-1.95.48-1.95 1.37v.04c0 .76.63 1.21 1.54 1.21 1.32 0 2.21-.73 2.21-1.75z"/><path class="st0" d="M96.6 7.7h2.82v1.43c.69-.93 1.63-1.61 3.1-1.61 2.32 0 4.53 1.82 4.53 5.14v.04c0 3.32-2.17 5.14-4.53 5.14-1.5 0-2.43-.69-3.1-1.48v4.27h-2.82v-12.93zm7.62 4.99v-.04c0-1.65-1.11-2.75-2.43-2.75s-2.41 1.09-2.41 2.75v.04c0 1.65 1.09 2.75 2.41 2.75 1.32-.01 2.43-1.08 2.43-2.75z"/><path class="st0" d="M108.75 4.1h2.82v5.01c.65-.83 1.48-1.6 2.91-1.6 2.13 0 3.38 1.41 3.38 3.69v6.44h-2.82v-5.55c0-1.34-.63-2.02-1.71-2.02s-1.76.69-1.76 2.02v5.55h-2.82v-13.54z"/><path class="st0" d="M120 4.1h2.97v2.5h-2.97v-2.5zm.08 3.6h2.82v9.95h-2.82v-9.95z"/><path class="st0" d="M124.7 12.72v-.04c0-2.84 2.17-5.18 5.21-5.18 1.87 0 3.04.63 3.97 1.67l-1.73 1.86c-.63-.67-1.26-1.09-2.26-1.09-1.41 0-2.41 1.24-2.41 2.71v.04c0 1.52.98 2.75 2.52 2.75.95 0 1.6-.41 2.28-1.06l1.65 1.67c-.96 1.06-2.08 1.82-4.06 1.82-2.98-.01-5.17-2.31-5.17-5.15z"/><path class="st0" d="M65.17 23.09h5.07c4.08 0 6.9 2.8 6.9 6.46v.04c0 3.66-2.82 6.49-6.9 6.49h-5.07v-12.99zm5.07 10.41c2.34 0 3.92-1.58 3.92-3.88v-.04c0-2.3-1.58-3.92-3.92-3.92h-2.21v7.83h2.21z"/><path class="st0" d="M78.54 31.16v-.04c0-2.84 2.02-5.18 4.92-5.18 3.32 0 4.84 2.58 4.84 5.4 0 .22-.02.48-.04.74h-6.92c.28 1.28 1.17 1.95 2.43 1.95.95 0 1.63-.3 2.41-1.02l1.61 1.43c-.93 1.15-2.26 1.86-4.06 1.86-2.98 0-5.19-2.1-5.19-5.14zm7.01-.84c-.17-1.26-.91-2.12-2.1-2.12-1.17 0-1.93.83-2.15 2.12h4.25z"/><path class="st0" d="M89.25 34.76l1.21-1.86c1.08.78 2.21 1.19 3.14 1.19.82 0 1.19-.3 1.19-.74v-.04c0-.61-.96-.82-2.06-1.15-1.39-.41-2.97-1.06-2.97-2.99v-.04c0-2.02 1.63-3.15 3.64-3.15 1.26 0 2.63.43 3.71 1.15l-1.08 1.95c-.98-.58-1.97-.93-2.69-.93-.69 0-1.04.3-1.04.69v.04c0 .56.95.82 2.02 1.19 1.39.46 3.01 1.13 3.01 2.95v.04c0 2.21-1.65 3.21-3.8 3.21-1.41-.01-2.96-.47-4.28-1.51z"/><path class="st0" d="M99.03 22.53h2.97v2.5h-2.97v-2.5zm.07 3.6h2.82v9.95h-2.82v-9.95z"/><path class="st0" d="M104.26 38.04l.96-2.12c1.02.58 2.04.91 3.36.91 1.93 0 2.84-.93 2.84-2.71v-.48c-.83 1-1.74 1.61-3.25 1.61-2.32 0-4.42-1.69-4.42-4.64v-.04c0-2.97 2.13-4.64 4.42-4.64 1.54 0 2.45.65 3.21 1.48v-1.3h2.82v7.7c0 1.78-.43 3.08-1.26 3.92-.93.93-2.36 1.34-4.29 1.34-1.6.01-3.12-.36-4.39-1.03zm7.17-7.42v-.04c0-1.35-1.06-2.3-2.43-2.3s-2.41.95-2.41 2.3v.04c0 1.37 1.04 2.3 2.41 2.3s2.43-.94 2.43-2.3z"/><path class="st0" d="M116.37 26.13h2.82v1.41c.65-.83 1.48-1.6 2.91-1.6 2.13 0 3.38 1.41 3.38 3.69v6.44h-2.82v-5.55c0-1.34-.63-2.02-1.71-2.02s-1.76.69-1.76 2.02v5.55h-2.82v-9.94z"/></svg>