<svg xmlns="http://www.w3.org/2000/svg" width="160" height="30" viewBox="0 0 160 30"><path d="M97.934 17.516c-.599-.881-.937-1.954-.937-3.105v-.049c0-2.913 2.137-5.294 5.217-5.294h.049c3.08 0 5.217 2.381 5.217 5.294v.049c0 .92-.184 1.769-.52 2.502l-1.051-.926-2.363 2.7c2.063.344 4.2.609 6.396.79l-.004-.002c.995-1.441 1.539-3.129 1.539-4.943v-.048c0-4.944-3.85-8.944-9.215-8.944-5.364 0-9.264 4.051-9.264 8.992v.051c0 .512.043 1.012.123 1.5 1.536.53 3.142 1.01 4.813 1.433zm26.649 1.939c1.198-.097 2.383-.218 3.558-.359.351-.983.534-2.131.534-3.445v-9.813h-3.826v9.961c0 1.911-.68 3.177-1.873 3.774.533-.035 1.07-.074 1.607-.118zm10.602-1.49v-12.127h-3.825v12.811c1.295-.202 2.57-.431 3.825-.684zm6.779-1.662v-4.131l2.547 3.344c1.23-.404 2.428-.832 3.594-1.284l-6.389-8.394h-3.527v11.463c1.285-.306 2.542-.639 3.775-.998zm-22.35 3.426c-1.438-.522-2.267-1.888-2.267-4.056v-9.835h-3.824v9.938c0 1.547.263 2.861.755 3.947 1.75.054 3.531.058 5.336.006zm18.574-.704v4.2h3.775v-4.872c-1.241.243-2.499.465-3.775.672zm-6.829.919v3.281h3.825v-3.751c-1.261.172-2.537.33-3.825.47zm-3.995.37c-4.289.334-8.484.455-12.54.381 1.271 1.861 3.421 2.803 6.226 2.803 2.986 0 5.273-1.059 6.531-3.202l-.217.018zm-25.89-.613l-.09-.014c-2.635-.357-5.164-.809-7.574-1.34 1.4 3.058 4.5 5.176 8.404 5.176 1.938 0 3.725-.574 5.189-1.517l2.744 2.454 2.449-2.774-1.328-1.106c-3.389-.158-6.664-.455-9.794-.879zm48.389-3.156c-1.257.336-2.538.652-3.844.953l4.364 5.728h3.254v-7.765c-1.23.379-2.49.74-3.774 1.084zm0-10.707v7.686c1.305-.549 2.565-1.128 3.774-1.732v-5.954h-3.774zm-111.919 5.263c1.341-.084 2.672-.147 3.99-.194.912-1.121 2.245-1.839 3.745-1.839 2.012 0 3.204.646 4.546 1.763l2.408-2.904c-1.812-1.541-3.7-2.387-6.83-2.387-3.988 0-7.162 2.324-8.468 5.6l.609-.039zm21.854.242c.908-1.375 2.43-2.275 4.301-2.275 2.355 0 4.188 1.453 4.92 3.47 1.478.256 2.906.541 4.278.85-.523-4.426-4.187-7.848-9.147-7.848-4.021 0-7.219 2.275-8.57 5.497 1.433.08 2.839.182 4.218.306zm-30.16.486v-5.991h-3.824v6.482c1.255-.177 2.531-.341 3.824-.491zm57.424 4.716l-.001-.002-8.146-10.705h-3.525v8.049c1.316.333 2.576.693 3.774 1.075v-2.79l8.419 11.054h3.256v-5.591c-1.303-.338-2.562-.703-3.776-1.092v.002zm-11.672 6.681h3.774v-5.109c-1.198-.583-2.457-1.13-3.774-1.641v6.75zm11.672-17.388v7.685c1.191.61 2.452 1.18 3.776 1.71v-9.395h-3.776zm-17.698 8.674v.071c0 2.98-2.137 5.414-5.215 5.414-3.08 0-5.266-2.484-5.266-5.465v-.048c0-.694.117-1.357.332-1.968-1.31-.17-2.643-.312-3.998-.426-.217.777-.334 1.596-.334 2.441v.051c0 4.943 3.85 8.941 9.215 8.941 4.932 0 8.623-3.422 9.188-7.813-1.262-.431-2.57-.831-3.922-1.198zm-23.66 2.008h3.85v2.482c-.968.696-2.209 1.044-3.601 1.044-3.081 0-5.266-2.335-5.266-5.515v-.048c0-.919.212-1.788.59-2.55-.72.041-1.444.09-2.169.148-.718.056-1.433.12-2.143.191-.182.723-.277 1.479-.277 2.258v.051c0 5.141 3.726 8.941 9.141 8.941 3.179 0 5.637-1.24 7.426-2.756v-7.552h-7.551v3.306zm-16.066-3.243c-1.294.227-2.57.475-3.824.746v9.202h10.863v-3.599h-7.039v-6.349zm-21.973 6.886l-1.303 3.062h3.899l1.47-3.599h7.593l1.469 3.599h4l-3.453-8.114c-5.003 1.349-9.607 3.061-13.675 5.052zm6.107-5.569l1.755-4.285 1.458 3.561c1.154-.243 2.332-.474 3.531-.692l-3.176-7.462h-3.527l-4.247 9.979c1.36-.386 2.763-.754 4.206-1.101zm84.162 2.922c-.599-.881-.937-1.954-.937-3.105v-.049c0-2.913 2.137-5.294 5.217-5.294h.049c3.08 0 5.217 2.381 5.217 5.294v.049c0 .92-.184 1.769-.52 2.502l-1.051-.926-2.363 2.7c2.063.344 4.2.609 6.396.79l-.004-.002c.995-1.441 1.539-3.129 1.539-4.943v-.048c0-4.944-3.85-8.944-9.215-8.944-5.364 0-9.264 4.051-9.264 8.992v.051c0 .512.043 1.012.123 1.5 1.536.53 3.142 1.01 4.813 1.433zm26.649 1.939c1.198-.097 2.383-.218 3.558-.359.351-.983.534-2.131.534-3.445v-9.813h-3.826v9.961c0 1.911-.68 3.177-1.873 3.774.533-.035 1.07-.074 1.607-.118zm10.602-1.49v-12.127h-3.825v12.811c1.295-.202 2.57-.431 3.825-.684zm6.779-1.662v-4.131l2.547 3.344c1.23-.404 2.428-.832 3.594-1.284l-6.389-8.394h-3.527v11.463c1.285-.306 2.542-.639 3.775-.998zm-22.35 3.426c-1.438-.522-2.267-1.888-2.267-4.056v-9.835h-3.824v9.938c0 1.547.263 2.861.755 3.947 1.75.054 3.531.058 5.336.006zm18.574-.704v4.2h3.775v-4.872c-1.241.243-2.499.465-3.775.672zm-6.829.919v3.281h3.825v-3.751c-1.261.172-2.537.33-3.825.47zm-3.995.37c-4.289.334-8.484.455-12.54.381 1.271 1.861 3.421 2.803 6.226 2.803 2.986 0 5.273-1.059 6.531-3.202l-.217.018zm-25.89-.613l-.09-.014c-2.635-.357-5.164-.809-7.574-1.34 1.4 3.058 4.5 5.176 8.404 5.176 1.938 0 3.725-.574 5.189-1.517l2.744 2.454 2.449-2.774-1.328-1.106c-3.389-.158-6.664-.455-9.794-.879zm48.389-3.156c-1.257.336-2.538.652-3.844.953l4.364 5.728h3.254v-7.765c-1.23.379-2.49.74-3.774 1.084zm0-10.707v7.686c1.305-.549 2.565-1.128 3.774-1.732v-5.954h-3.774zm-111.919 5.263c1.341-.084 2.672-.147 3.99-.194.912-1.121 2.245-1.839 3.745-1.839 2.012 0 3.204.646 4.546 1.763l2.408-2.904c-1.812-1.541-3.7-2.387-6.83-2.387-3.988 0-7.162 2.324-8.468 5.6l.609-.039zm21.854.242c.908-1.375 2.43-2.275 4.301-2.275 2.355 0 4.188 1.453 4.92 3.47 1.478.256 2.906.541 4.278.85-.523-4.426-4.187-7.848-9.147-7.848-4.021 0-7.219 2.275-8.57 5.497 1.433.08 2.839.182 4.218.306zm-30.16.486v-5.991h-3.824v6.482c1.255-.177 2.531-.341 3.824-.491zm57.424 4.716l-.001-.002-8.146-10.705h-3.525v8.049c1.316.333 2.576.693 3.774 1.075v-2.79l8.419 11.054h3.256v-5.591c-1.303-.338-2.562-.703-3.776-1.092v.002zm-11.672 6.681h3.774v-5.109c-1.198-.583-2.457-1.13-3.774-1.641v6.75zm11.672-17.388v7.685c1.191.61 2.452 1.18 3.776 1.71v-9.395h-3.776zm-17.698 8.674v.071c0 2.98-2.137 5.414-5.215 5.414-3.08 0-5.266-2.484-5.266-5.465v-.048c0-.694.117-1.357.332-1.968-1.31-.17-2.643-.312-3.998-.426-.217.777-.334 1.596-.334 2.441v.051c0 4.943 3.85 8.941 9.215 8.941 4.932 0 8.623-3.422 9.188-7.813-1.262-.431-2.57-.831-3.922-1.198zm-23.66 2.008h3.85v2.482c-.968.696-2.209 1.044-3.601 1.044-3.081 0-5.266-2.335-5.266-5.515v-.048c0-.919.212-1.788.59-2.55-.72.041-1.444.09-2.169.148-.718.056-1.433.12-2.143.191-.182.723-.277 1.479-.277 2.258v.051c0 5.141 3.726 8.941 9.141 8.941 3.179 0 5.637-1.24 7.426-2.756v-7.552h-7.551v3.306zm-16.066-3.243c-1.294.227-2.57.475-3.824.746v9.202h10.863v-3.599h-7.039v-6.349zm-21.973 6.886l-1.303 3.062h3.899l1.47-3.599h7.593l1.469 3.599h4l-3.453-8.114c-5.003 1.349-9.607 3.061-13.675 5.052zm6.107-5.569l1.755-4.285 1.458 3.561c1.154-.243 2.332-.474 3.531-.692l-3.176-7.462h-3.527l-4.247 9.979c1.36-.386 2.763-.754 4.206-1.101z" fill="#fff"/></svg>