<svg xmlns="http://www.w3.org/2000/svg" width="500" height="500" viewBox="0 0 500 500"><path fill-rule="evenodd" clip-rule="evenodd" fill="#fff" d="M249.985 15c-129.759 0-234.985 105.211-234.985 235.015 0 103.819 67.33 191.9 160.719 222.978 11.748 2.154 16.042-5.101 16.042-11.326 0-5.582-.207-20.358-.318-39.969-65.368 14.199-79.16-31.5-79.16-31.5-10.689-27.154-26.095-34.379-26.095-34.379-21.336-14.584 1.613-14.288 1.613-14.288 23.586 1.666 35.993 24.223 35.993 24.223 20.966 35.912 55.004 25.54 68.396 19.521 2.132-15.184 8.202-25.54 14.917-31.411-52.184-5.937-107.04-26.095-107.04-116.152 0-25.651 9.157-46.631 24.186-63.059-2.413-5.944-10.482-29.834 2.303-62.192 0 0 19.729-6.314 64.628 24.09 18.744-5.212 38.843-7.817 58.831-7.907 19.966.09 40.05 2.695 58.832 7.907 44.876-30.404 64.568-24.09 64.568-24.09 12.822 32.358 4.745 56.248 2.339 62.192 15.043 16.428 24.148 37.407 24.148 63.059 0 90.279-54.944 110.149-107.298 115.968 8.439 7.255 15.945 21.595 15.945 43.515 0 31.418-.281 56.766-.281 64.473 0 6.285 4.228 13.592 16.161 11.297 93.307-31.139 160.571-119.16 160.571-222.95 0-129.804-105.219-235.015-235.015-235.015z"/></svg>