<svg xmlns="http://www.w3.org/2000/svg" width="329" height="494" viewBox="0 0 329 494"><path fill="#999" d="M36.888 480.296c3.936 4.42 10.494 23.202 13.907 29.962 0 0-.156 7.742 3.136 13.742h196.883c1.97-7 5.641-20.562 8.64-25.444 4.989-.52 6.823-8.607 4.2-11.729 2.101-1.562 29.922-50.717 40.16-71.52 10.229-20.802 17.057-42.391 17.057-50.71 0-8.32-1.051-55.125-4.988-75.666-3.935-20.541-7.609-28.084-8.92-41.863-1.314-13.78-12.602-44.202-20.999-55.385-8.397-11.181-39.104-22.101-52.493-30.159-13.384-8.062-27.654-12.802-32.365-15.143-1.6-8.703.197-29.448 2.857-37.74 7.094 1.775 7.756-7.925 13.032-17.967s.288-13.05-4.354-10.461c1.449-4.226 2.987-14.17 3.412-23.713.426-9.542-9.054-25.495-13.021-30.56-3.966-5.062-12.404-12.625-22.257-9.812.947-1.663 7.186-2.918 7.186-2.918s-7.283-.788-10.095 1.947c-2.364-2.708-17.173-4.126-24.565-2.272 2.435 1.285-2.24 5.097-10.104 7.267-7.868 2.171-19.006 17.841-22.131 28.5-3.126 10.661-1.188 22.91 2.828 29.828-6.846-.91-6.769 6.065-1.123 13.09 5.653 7.027 7.78 18.292 11.798 17.836 1.062 5.119 3.894 25.335-.26 32.918-9.133 2.382-42.043 20.237-61.991 27.257-19.947 7.021-26.244 23.402-33.856 35.363-7.61 11.957-8.4 24.179-9.711 36.139-1.312 11.96-5.513 19.502-5.513 26.265 0 6.758-.265 16.117.261 16.639 0 0-7.347 38.223-11.809 63.703-4.465 25.479 2.361 57.462 11.809 84.764 9.447 27.3 9.447 43.421 13.389 47.842zm221.516-93.605c2.625-9.361 1.049-27.562 3.41-33.803 2.365-6.24-3.147-15.342.524-28.08 1.312 6.24 14.175 26.26 11.552 37.182-2.625 10.921-11.289 34.582-15.486 44.463 1.049-8.581-2.625-10.402 0-19.762zm-199.208-47.841c2.885-14.301 12.334-33.281 13.646-37.701 0 0 1.574 0 3.412-2.859 0 0-1.575 11.961 1.575 17.941 3.148 5.979.262 34.062-6.037 46.539-6.3 12.479-.525 29.901-2.625 38.481-2.097 8.581 3.149 15.342-.523 21.842-3.676 6.5 1.835 7.021-2.102 15.341-3.935 8.32 2.625 8.062-5.512 21.062 0 0-.784-24.962-.521-46.541.259-21.583-4.202-59.807-1.313-74.105z"/></svg>